<svg viewBox="0 0 141 158" xmlns="http://www.w3.org/2000/svg" xml:space="preserve" style="fill-rule:evenodd;clip-rule:evenodd;stroke-linejoin:round;stroke-miterlimit:2"><path style="fill:#fff;fill-rule:nonzero" d="M0 .46h140.032V158H0z"/><path d="M57.702 118.08c-.747 0-1.377.474-1.615 1.12l-3.293 8.33-.29.948-.263-.966-2.544-8.099c0-.035-.023-.061-.03-.075v-.022a1.734 1.734 0 0 0-1.627-1.161h-4.111a1.744 1.744 0 0 0-1.659 1.736c0 .248.119.577.199.889l.537 1.693-2.015 5.067-.319.938-.261-.948-2.529-8.117c-.031-.035-.031-.061-.038-.075v-.022a1.736 1.736 0 0 0-1.627-1.161h-4.109c-.91.052-1.657.801-1.657 1.736 0 .248.101.577.206.889l6.148 18.334a1.73 1.73 0 0 0 1.67 1.301c.784 0 1.436-.502 1.65-1.211l4.309-10.873.318-.968.258.958 3.628 10.793c.185.75.858 1.301 1.675 1.301.791 0 1.444-.525 1.667-1.259l7.288-18.579c.105-.232.176-.486.176-.747 0-.966-.783-1.75-1.742-1.75Zm30.654 0c-.747 0-1.385.474-1.631 1.12l-3.272 8.33-.315.948-.238-.966-2.564-8.099c0-.035 0-.061-.01-.075v-.022a1.752 1.752 0 0 0-1.644-1.161h-4.107a1.733 1.733 0 0 0-1.646 1.736c0 .248.093.577.196.889l.539 1.693-2.023 5.067-.329.938-.246-.948-2.533-8.117c-.026-.035-.026-.061-.043-.075v-.022a1.703 1.703 0 0 0-1.615-1.161h-4.116a1.74 1.74 0 0 0-1.662 1.736c0 .248.116.577.199.889l6.173 18.334c.181.75.858 1.301 1.668 1.301.764 0 1.418-.502 1.648-1.211l4.305-10.873.302-.968.273.958 3.611 10.793a1.741 1.741 0 0 0 3.356.042l7.291-18.579a1.76 1.76 0 0 0 .173-.747 1.75 1.75 0 0 0-1.74-1.75Zm19.911.037H93.895c-.834 0-1.498.673-1.498 1.504v19.094c0 .01 0-.008 0 0h.004c.034.862.747 1.564 1.61 1.564h4.071a1.63 1.63 0 0 0 1.593-1.613v-8.916l5.857-.014a1.566 1.566 0 0 0 1.548-1.583c0-.854-.701-1.567-1.583-1.567h-5.814l-.008-5.099h8.675a1.683 1.683 0 0 0 1.606-1.686c0-.935-.764-1.684-1.689-1.684ZM85.975 57.282c2.617 2.93 2.897 11.644 9.468 8.176 3.953-2.081 3.897-10.877-1.373-14.048-4.266-2.522-6.599.878-8.143 5.049-.12.327-.127.656.048.823Zm-10.207-1.394c-2.747 2.279-4.634 8.523-9.687 6.402-4.084-2.077-4.476-10.169 2.563-13.907 4.904-2.255 7.393 2.212 7.427 6.952 0 .166-.161.416-.303.553Zm6.782 15.929c2.713-.281 2.101-2.796.044-3.428-1.835-.547-4.623-.904-6.593-.868-3.49.081-3.404 2.745-1.587 3.197 1.373.459 2.257.641 3.444 2.166 1.082 2.102.602-.629 4.692-1.067Zm12.804-45.038c3.408-5.675 9.337-4.575 12.308-1.747 3.269 3.073 3.796 6.622 2.542 9.119-1.706 3.349-6.068 7.419-8.909 3.481-1.253-1.737-3.918-3.816-5.369-4.416-2.234-.94-2.658-2.955-.572-6.437Z" style="fill:#231f20;fill-rule:nonzero"/><path d="M108.92 51.803c-.306-1.005-.805-.948-.783-.119.276 10.345-5.9 21.423-19.12 21.5-3.381.006-2.366 5.42-8.531 2.699-4.449-3-6.995 2.905-10.156-3.448-.687-1.831-1.731-2.564-3.079-2.899-13.051-3.234-17.215-21.198-5.713-35.701 2.277 1.357 3.109 1.567 5.536-.66 1.268-1.169 3.391-2.461 4.548-2.887 2.766-1.058 4.266-2.237 1.869-7.512-3.066-6.847-9.353-4.914-12.226-2.547-3.244 2.678-5.523 6.988-1.343 12.066C48.231 40.182 46.226 49.87 46.495 58.29c.276 8.957-2.015 8.194.844 17.31.252.8-.307.782-.738.523-12.186-7.804-18.773-31.597.219-44.717.428-.383.252-.882-1.31.033-16.441 8.694-17.951 25.534-15.224 36.88 1.333 5.495-.694 6.508 1.437 13.727 4.892 15.046 9.065 16.235 14.957 16.669 10.726 0 3.453-5.915 3.844-13.346 0-.434.531-.646.834.248 5.903 13.241 10.071 25.287 25.585 24.16 8.984-1.169 4.001-5.632 3.452-8.16-6.605-21.921 9.423-27.087 4.885-5.714-2.995 12.243 6.477 11.016 13.145 6.623 6.876-4.516 15.474-34.32 10.495-50.723ZM82.781 77.732c-1.485 3.931-9.195 2.582-9.439-1.223 0-.151.206-.117.295-.097 3.433.804 6.7 1.183 8.913 1.175.082 0 .263-.047.231.145Z" style="fill:#231f20;fill-rule:nonzero"/><path d="M48.353 104.298a2.879 2.879 0 0 1-2.873 2.873 2.869 2.869 0 1 1 0-5.736c1.574 0 2.873 1.288 2.873 2.863Zm-2.873-3.438a3.45 3.45 0 0 0-3.446 3.438 3.455 3.455 0 0 0 3.446 3.452c1.902 0 3.428-1.549 3.428-3.452a3.434 3.434 0 0 0-3.428-3.438Z" style="fill:#231f20;fill-rule:nonzero"/><path d="M46.461 104.835c-.067.418-.418.709-.897.709-.66 0-1.082-.585-1.082-1.254 0-.698.382-1.219 1.078-1.219.465 0 .808.269.901.678h.48c-.085-.761-.678-1.187-1.394-1.187-1.027 0-1.616.747-1.616 1.728 0 .986.638 1.737 1.633 1.737.699 0 1.258-.453 1.402-1.192h-.505Zm62.381 7.677a2.876 2.876 0 0 1-2.873 2.874 2.874 2.874 0 0 1-2.887-2.874c0-1.583 1.288-2.859 2.887-2.859a2.87 2.87 0 0 1 2.873 2.859Zm-2.873-3.44a3.429 3.429 0 0 0-3.441 3.44 3.422 3.422 0 0 0 3.441 3.442 3.433 3.433 0 0 0 3.437-3.442 3.44 3.44 0 0 0-3.437-3.44Z" style="fill:#231f20;fill-rule:nonzero"/><path d="M105.371 112.747h.564l.865 1.399h.537l-.929-1.435c.485-.061.849-.315.849-.883 0-.648-.374-.924-1.139-.924h-1.253v3.242h.506v-1.399Zm0-.43v-1.012h.668c.339 0 .704.091.704.487 0 .503-.365.525-.796.525h-.576Z" style="fill:#231f20;fill-rule:nonzero"/></svg>